REM DIRINDEX 1\3,1\2\4,1\2\5,1\2\6
REM DIRNAME cjc137,folder01,folder02,folder03,folder04,folder05
TITLE ""
FILE "158.mp3" MP3
  TRACK 01 AUDIO
    TITLE "0:"
    INDEX 01 00:00:00
  TRACK 02 AUDIO
    TITLE "4:cjc137_7124"
    INDEX 01 00:00:07
  TRACK 03 AUDIO
    TITLE "0:"
    INDEX 01 00:01:28
  TRACK 04 AUDIO
    TITLE "6:cjc137_7125"
    INDEX 01 00:01:34
  TRACK 05 AUDIO
    TITLE "0:"
    INDEX 01 00:02:71
  TRACK 06 AUDIO
    TITLE "5:cjc137_7126"
    INDEX 01 00:03:08
  TRACK 07 AUDIO
    TITLE "0:"
    INDEX 01 00:04:27
  TRACK 08 AUDIO
    TITLE "4:cjc137_7127"
    INDEX 01 00:05:38
  TRACK 09 AUDIO
    TITLE "0:"
    INDEX 01 00:06:59
  TRACK 10 AUDIO
    TITLE "6:cjc137_7128"
    INDEX 01 00:06:67
  TRACK 11 AUDIO
    TITLE "0:"
    INDEX 01 00:08:28
  TRACK 12 AUDIO
    TITLE "5:cjc137_7129"
    INDEX 01 00:08:36
  TRACK 13 AUDIO
    TITLE "0:"
    INDEX 01 00:09:59
  TRACK 14 AUDIO
    TITLE "4:cjc137_7130"
    INDEX 01 00:10:66
  TRACK 15 AUDIO
    TITLE "0:"
    INDEX 01 00:12:30
  TRACK 16 AUDIO
    TITLE "6:cjc137_7131"
    INDEX 01 00:12:36
  TRACK 17 AUDIO
    TITLE "0:"
    INDEX 01 00:14:17
  TRACK 18 AUDIO
    TITLE "5:cjc137_7132"
    INDEX 01 00:14:23
  TRACK 19 AUDIO
    TITLE "0:"
    INDEX 01 00:15:60
  TRACK 20 AUDIO
    TITLE "4:cjc137_7133"
    INDEX 01 00:16:67
  TRACK 21 AUDIO
    TITLE "0:"
    INDEX 01 00:18:11
  TRACK 22 AUDIO
    TITLE "6:cjc137_7134"
    INDEX 01 00:18:21
  TRACK 23 AUDIO
    TITLE "0:"
    INDEX 01 00:19:28
  TRACK 24 AUDIO
    TITLE "5:cjc137_7135"
    INDEX 01 00:19:32
  TRACK 25 AUDIO
    TITLE "0:"
    INDEX 01 00:20:51
  TRACK 26 AUDIO
    TITLE "4:cjc137_7136"
    INDEX 01 00:21:62
  TRACK 27 AUDIO
    TITLE "0:"
    INDEX 01 00:23:44
  TRACK 28 AUDIO
    TITLE "6:cjc137_7137"
    INDEX 01 00:23:53
  TRACK 29 AUDIO
    TITLE "0:"
    INDEX 01 00:25:33
  TRACK 30 AUDIO
    TITLE "5:cjc137_7138"
    INDEX 01 00:25:41
  TRACK 31 AUDIO
    TITLE "0:"
    INDEX 01 00:27:24
  TRACK 32 AUDIO
    TITLE "4:cjc137_7139"
    INDEX 01 00:28:31
  TRACK 33 AUDIO
    TITLE "0:"
    INDEX 01 00:29:72
  TRACK 34 AUDIO
    TITLE "6:cjc137_7140"
    INDEX 01 00:30:03
  TRACK 35 AUDIO
    TITLE "0:"
    INDEX 01 00:31:12
  TRACK 36 AUDIO
    TITLE "5:cjc137_7141"
    INDEX 01 00:31:18
  TRACK 37 AUDIO
    TITLE "0:"
    INDEX 01 00:32:58
  TRACK 38 AUDIO
    TITLE "4:cjc137_7142"
    INDEX 01 00:33:69
  TRACK 39 AUDIO
    TITLE "0:"
    INDEX 01 00:35:21
  TRACK 40 AUDIO
    TITLE "6:cjc137_7143"
    INDEX 01 00:35:29
  TRACK 41 AUDIO
    TITLE "0:"
    INDEX 01 00:37:05
  TRACK 42 AUDIO
    TITLE "5:cjc137_7144"
    INDEX 01 00:37:14
  TRACK 43 AUDIO
    TITLE "0:"
    INDEX 01 00:38:41
  TRACK 44 AUDIO
    TITLE "4:cjc137_7145"
    INDEX 01 00:39:49
  TRACK 45 AUDIO
    TITLE "0:"
    INDEX 01 00:40:60
  TRACK 46 AUDIO
    TITLE "6:cjc137_7146"
    INDEX 01 00:40:72
  TRACK 47 AUDIO
    TITLE "0:"
    INDEX 01 00:42:51
  TRACK 48 AUDIO
    TITLE "5:cjc137_7147"
    INDEX 01 00:42:59
  TRACK 49 AUDIO
    TITLE "0:"
    INDEX 01 00:43:72
  TRACK 50 AUDIO
    TITLE "4:cjc137_7148"
    INDEX 01 00:45:08
  TRACK 51 AUDIO
    TITLE "0:"
    INDEX 01 00:47:30
  TRACK 52 AUDIO
    TITLE "6:cjc137_7149"
    INDEX 01 00:47:42
  TRACK 53 AUDIO
    TITLE "0:"
    INDEX 01 00:50:66
  TRACK 54 AUDIO
    TITLE "5:cjc137_7150"
    INDEX 01 00:51:01
  TRACK 55 AUDIO
    TITLE "0:"
    INDEX 01 00:53:23
  TRACK 56 AUDIO
    TITLE "4:cjc137_7151"
    INDEX 01 00:54:36
  TRACK 57 AUDIO
    TITLE "0:"
    INDEX 01 00:55:69
  TRACK 58 AUDIO
    TITLE "6:cjc137_7152"
    INDEX 01 00:56:04
  TRACK 59 AUDIO
    TITLE "0:"
    INDEX 01 00:57:46
  TRACK 60 AUDIO
    TITLE "5:cjc137_7153"
    INDEX 01 00:57:54
  TRACK 61 AUDIO
    TITLE "0:"
    INDEX 01 00:59:12
  TRACK 62 AUDIO
    TITLE "4:cjc137_7154"
    INDEX 01 01:00:23
  TRACK 63 AUDIO
    TITLE "0:"
    INDEX 01 01:02:67
  TRACK 64 AUDIO
    TITLE "6:cjc137_7155"
    INDEX 01 01:03:00
  TRACK 65 AUDIO
    TITLE "0:"
    INDEX 01 01:05:42
  TRACK 66 AUDIO
    TITLE "5:cjc137_7156"
    INDEX 01 01:05:50
  TRACK 67 AUDIO
    TITLE "0:"
    INDEX 01 01:08:17
  TRACK 68 AUDIO
    TITLE "4:cjc137_7157"
    INDEX 01 01:09:26
  TRACK 69 AUDIO
    TITLE "0:"
    INDEX 01 01:11:05
  TRACK 70 AUDIO
    TITLE "6:cjc137_7158"
    INDEX 01 01:11:09
  TRACK 71 AUDIO
    TITLE "0:"
    INDEX 01 01:13:30
  TRACK 72 AUDIO
    TITLE "5:cjc137_7159"
    INDEX 01 01:13:38
  TRACK 73 AUDIO
    TITLE "0:"
    INDEX 01 01:15:15
  TRACK 74 AUDIO
    TITLE "4:cjc137_7160"
    INDEX 01 01:16:24
  TRACK 75 AUDIO
    TITLE "0:"
    INDEX 01 01:17:45
  TRACK 76 AUDIO
    TITLE "6:cjc137_7161"
    INDEX 01 01:17:51
  TRACK 77 AUDIO
    TITLE "0:"
    INDEX 01 01:19:42
  TRACK 78 AUDIO
    TITLE "5:cjc137_7162"
    INDEX 01 01:19:48
  TRACK 79 AUDIO
    TITLE "0:"
    INDEX 01 01:20:69
  TRACK 80 AUDIO
    TITLE "4:cjc137_7163"
    INDEX 01 01:22:05
  TRACK 81 AUDIO
    TITLE "0:"
    INDEX 01 01:23:56
  TRACK 82 AUDIO
    TITLE "6:cjc137_7164"
    INDEX 01 01:24:04
  TRACK 83 AUDIO
    TITLE "0:"
    INDEX 01 01:26:15
  TRACK 84 AUDIO
    TITLE "5:cjc137_7165"
    INDEX 01 01:26:21
  TRACK 85 AUDIO
    TITLE "0:"
    INDEX 01 01:28:00
  TRACK 86 AUDIO
    TITLE "4:cjc137_7166"
    INDEX 01 01:29:21
  TRACK 87 AUDIO
    TITLE "0:"
    INDEX 01 01:30:42
  TRACK 88 AUDIO
    TITLE "6:cjc137_7167"
    INDEX 01 01:30:52
  TRACK 89 AUDIO
    TITLE "0:"
    INDEX 01 01:31:57
  TRACK 90 AUDIO
    TITLE "5:cjc137_7168"
    INDEX 01 01:31:61
  TRACK 91 AUDIO
    TITLE "0:"
    INDEX 01 01:33:09
  TRACK 92 AUDIO
    TITLE "4:cjc137_7169"
    INDEX 01 01:34:16
  TRACK 93 AUDIO
    TITLE "0:"
    INDEX 01 01:35:41
  TRACK 94 AUDIO
    TITLE "6:cjc137_7170"
    INDEX 01 01:35:49
  TRACK 95 AUDIO
    TITLE "0:"
    INDEX 01 01:36:66
  TRACK 96 AUDIO
    TITLE "5:cjc137_7171"
    INDEX 01 01:36:74
  TRACK 97 AUDIO
    TITLE "0:"
    INDEX 01 01:38:20
  TRACK 98 AUDIO
    TITLE "4:cjc137_7172"
    INDEX 01 01:39:33
  TRACK 99 AUDIO
    TITLE "0:"
    INDEX 01 01:40:60
  TRACK 100 AUDIO
    TITLE "6:cjc137_7173"
    INDEX 01 01:40:66
  TRACK 101 AUDIO
    TITLE "0:"
    INDEX 01 01:42:57
  TRACK 102 AUDIO
    TITLE "5:cjc137_7174"
    INDEX 01 01:42:65
  TRACK 103 AUDIO
    TITLE "0:"
    INDEX 01 01:44:15
  TRACK 104 AUDIO
    TITLE "4:cjc137_7175"
    INDEX 01 01:45:24
  TRACK 105 AUDIO
    TITLE "0:"
    INDEX 01 01:46:51
  TRACK 106 AUDIO
    TITLE "6:cjc137_7176"
    INDEX 01 01:46:59
  TRACK 107 AUDIO
    TITLE "0:"
    INDEX 01 01:48:36
  TRACK 108 AUDIO
    TITLE "5:cjc137_7177"
    INDEX 01 01:48:46
  TRACK 109 AUDIO
    TITLE "0:"
    INDEX 01 01:49:71
  TRACK 110 AUDIO
    TITLE "4:cjc137_7178"
    INDEX 01 01:51:07
  TRACK 111 AUDIO
    TITLE "0:"
    INDEX 01 01:52:42
  TRACK 112 AUDIO
    TITLE "6:cjc137_7179"
    INDEX 01 01:52:51
  TRACK 113 AUDIO
    TITLE "0:"
    INDEX 01 01:54:42
  TRACK 114 AUDIO
    TITLE "5:cjc137_7180"
    INDEX 01 01:54:46
  TRACK 115 AUDIO
    TITLE "0:"
    INDEX 01 01:56:06
  TRACK 116 AUDIO
    TITLE "4:cjc137_7181"
    INDEX 01 01:57:17
  TRACK 117 AUDIO
    TITLE "0:"
    INDEX 01 01:58:46
  TRACK 118 AUDIO
    TITLE "6:cjc137_7182"
    INDEX 01 01:58:52
  TRACK 119 AUDIO
    TITLE "0:"
    INDEX 01 02:00:24
  TRACK 120 AUDIO
    TITLE "5:cjc137_7183"
    INDEX 01 02:00:27
  TRACK 121 AUDIO
    TITLE "0:"
    INDEX 01 02:01:56
  TRACK 122 AUDIO
    TITLE "4:cjc137_7184"
    INDEX 01 02:02:64
  TRACK 123 AUDIO
    TITLE "0:"
    INDEX 01 02:04:25
  TRACK 124 AUDIO
    TITLE "6:cjc137_7185"
    INDEX 01 02:04:31
  TRACK 125 AUDIO
    TITLE "0:"
    INDEX 01 02:06:16
  TRACK 126 AUDIO
    TITLE "5:cjc137_7186"
    INDEX 01 02:06:22
  TRACK 127 AUDIO
    TITLE "0:"
    INDEX 01 02:07:57
  TRACK 128 AUDIO
    TITLE "4:cjc137_7187"
    INDEX 01 02:08:66
  TRACK 129 AUDIO
    TITLE "0:"
    INDEX 01 02:11:02
  TRACK 130 AUDIO
    TITLE "6:cjc137_7188"
    INDEX 01 02:11:08
  TRACK 131 AUDIO
    TITLE "0:"
    INDEX 01 02:12:15
  TRACK 132 AUDIO
    TITLE "5:cjc137_7189"
    INDEX 01 02:12:23
  TRACK 133 AUDIO
    TITLE "0:"
    INDEX 01 02:14:35
